<?xml version="1.0" encoding="utf-8"?>
<!-- Generator: Adobe Illustrator 16.0.0, SVG Export Plug-In . SVG Version: 6.00 Build 0)  -->
<!DOCTYPE svg PUBLIC "-//W3C//DTD SVG 1.1//EN" "http://www.w3.org/Graphics/SVG/1.1/DTD/svg11.dtd">
<svg version="1.1" id="Layer_1" xmlns="http://www.w3.org/2000/svg" xmlns:xlink="http://www.w3.org/1999/xlink" x="0px" y="0px"
	 width="1000px" height="350px" viewBox="0 0 1000 350" enable-background="new 0 0 1000 350" xml:space="preserve">
<path fill="#FFFFFF" d="M180.679,43.163C108.898,43.163,51,101.137,51,172.918c0,71.476,57.975,129.756,129.755,129.756
	c71.781,0,129.755-58.203,129.755-129.756C310.435,101.137,252.46,43.163,180.679,43.163L180.679,43.163z"/>
<path fill="#70BCDB" d="M261.69,157.204c1.984,0.61,3.204,2.288,3.204,4.043v24.486c0,1.755-1.449,3.737-3.204,4.043l-19.909,3.204
	c-1.144,3.737-2.594,6.636-4.349,9.764c3.738,5.492,7.781,10.375,11.519,15.562c1.449,1.983,1.754,3.433,0.305,4.883
	c-2.898,3.432-17.621,19.909-21.054,19.909c-1.144,0-2.288-0.305-3.203-1.144l-15.257-11.824c-3.203,1.754-6.636,3.203-9.764,4.348
	c-0.839,6.331-1.755,13.578-3.204,19.909c-0.611,1.984-1.754,3.205-4.042,3.205h-24.487c-2.289,0-3.737-1.45-4.043-3.205
	l-2.898-19.909c-3.204-1.145-6.637-2.594-9.764-4.041l-15.867,11.518c-1.755,1.449-3.737,1.144-5.187-0.305
	c-6.026-5.493-13.578-12.13-18.155-18.768c-1.145-1.447-1.145-3.203,0-4.882c3.737-5.492,8.086-10.372,11.519-15.256
	c-1.755-3.738-3.433-7.17-4.348-10.374l-19.91-3.433c-1.983-0.305-3.204-1.983-3.204-4.043v-24.258c0-1.982,1.45-4.043,3.204-4.348
	l19.91-3.204c1.144-3.738,2.593-6.637,4.348-10.069c-3.738-5.188-7.781-10.069-11.519-15.256c-1.755-1.983-1.984-3.204-0.306-5.187
	c2.899-3.738,17.316-19.91,21.054-19.91c0.838,0,1.983,0.61,3.204,1.449l15.256,11.519c3.204-1.754,6.637-3.204,9.764-4.348
	c0.839-6.332,1.754-13.578,3.205-19.91c0.609-1.983,1.983-3.204,4.042-3.204h24.486c2.289,0,3.738,1.449,4.043,3.432l3.204,19.91
	c3.204,1.144,6.636,2.593,9.764,4.042l15.943-11.366c1.754-1.449,3.737-1.449,5.187,0.305c6.026,5.187,13.807,12.129,18.155,18.46
	c1.144,1.754,1.144,3.433,0,4.881c-3.737,5.492-7.78,10.375-11.519,15.256c1.755,3.738,3.433,7.477,4.348,10.68L261.69,157.204z"/>
<path fill="#2D3F50" d="M180.679,201.067c15.561,0,27.995-12.664,27.995-27.996c0-15.562-12.663-28.226-27.995-28.226
	c-15.332,0-27.996,12.663-27.996,28.226C152.76,188.633,165.119,201.067,180.679,201.067L180.679,201.067z"/>
<g enable-background="new    ">
	<path fill="#70BCDB" d="M480.83,151.578c0,22.984-10.032,37.463-30.09,43.44l36.467,50.615h-29.891l-33.279-46.829h-30.887v46.829
		h-23.514v-139.29h51.811c21.253,0,36.467,3.586,45.633,10.76C476.247,124.278,480.83,135.77,480.83,151.578z M449.544,171.306
		c4.783-4.116,7.173-10.726,7.173-19.827c0-9.098-2.459-15.344-7.373-18.731c-4.917-3.388-13.684-5.082-26.304-5.082h-29.891v49.818
		h29.293C435.726,177.483,444.762,175.425,449.544,171.306z"/>
	<path fill="#70BCDB" d="M610.156,202.392H527.06c0.529,7.707,4.051,13.918,10.562,18.632c6.508,4.718,13.949,7.074,22.318,7.074
		c13.283,0,23.38-4.185,30.289-12.554l12.754,13.949c-11.427,11.825-26.304,17.734-44.637,17.734
		c-14.88,0-27.534-4.947-37.961-14.846c-10.431-9.895-15.643-23.181-15.643-39.854c0-16.671,5.312-29.922,15.941-39.755
		c10.627-9.83,23.146-14.746,37.562-14.746c14.413,0,26.668,4.353,36.766,13.052c10.094,8.703,15.145,20.693,15.145,35.968V202.392z
		 M527.06,184.856h60.778c0-8.899-2.79-15.743-8.37-20.525c-5.579-4.783-12.454-7.174-20.624-7.174s-15.512,2.491-22.02,7.473
		C530.313,169.612,527.06,176.356,527.06,184.856z"/>
	<path fill="#70BCDB" d="M656.983,245.634h-22.318V97.775h22.318v86.882l43.043-45.036h28.694l-40.252,42.046l43.241,63.966h-27.101
		l-31.484-46.43l-16.142,16.34V245.634z"/>
	<path fill="#70BCDB" d="M834.535,245.634H814.21v-14.148c-8.768,10.496-20.525,15.742-35.271,15.742
		c-11.028,0-20.16-3.119-27.399-9.365c-7.242-6.243-10.86-14.578-10.86-25.009c0-10.427,3.852-18.233,11.558-23.414
		c7.703-5.181,18.134-7.771,31.286-7.771h28.894v-3.985c0-14.08-7.84-21.123-23.514-21.123c-9.833,0-20.061,3.587-30.688,10.761
		l-9.964-13.949c12.885-10.229,27.5-15.344,43.84-15.344c12.485,0,22.683,3.157,30.588,9.466
		c7.902,6.311,11.856,16.24,11.856,29.791V245.634z M812.217,206.178v-8.967h-25.107c-16.076,0-24.112,5.051-24.112,15.145
		c0,5.181,1.993,9.136,5.979,11.856c3.985,2.725,9.53,4.085,16.639,4.085c7.105,0,13.317-1.992,18.632-5.978
		C809.558,218.334,812.217,212.953,812.217,206.178z"/>
	<path fill="#70BCDB" d="M887.938,245.634h-22.318V97.775h22.318V245.634z"/>
	<path fill="#70BCDB" d="M942.535,245.634h-22.318V97.775h22.318V245.634z"/>
</g>
</svg>
